<svg xmlns="http://www.w3.org/2000/svg" id="Layer_1" viewBox="0 0 3076.64 707.26"><defs><style>.cls-5,.cls-7{stroke-width:0}.cls-5{fill:#228b22}.cls-7{fill:#133026}</style></defs><path d="M211.46 273.74c19.75 10.74 37.04 24.79 53.66 39.77 23.88 21.52 43.1 46.73 59.17 74.45.62 1.07 1.42 2.04 2.31 3.31 7.68-31.71.61-55.76-23.1-80.17-12.18-12.54-24.73-24.8-33.9-39.87-10.46-17.2-20.21-34.72-22.47-55.27-.19-1.75-.23-3.53-.37-5.83 15.52 5.88 25.99 16.79 34.34 30.19 5.93 9.5 10.02 20.11 17.4 28.74 8.36 9.79 17.65 18.55 28.86 26.51 1.3-16.49.61-31.63-7.36-46.29-21.23-39.03-54.45-62.72-95.51-76.88-.58-.2-1.29-.03-2-.03-4.87 27.87-1.84 54.84 8.18 81.63-27.72-14.65-55.43-29.3-84.08-44.44-16.49 68.78.77 129.65 41.92 186.93C126.95 374.03 65.17 365.7.02 373.78c0-9.69.06-19.17-.01-28.66-.31-38.83 6.41-76.47 19.26-113.03 13.87-39.48 35.07-74.74 61.49-107.12 21.05-25.8 45.15-48.21 72.69-66.68 42.38-28.42 89.13-47.24 139.48-54.62 86.72-12.7 166.33 7.81 238.11 57.61 52.51 36.44 92.08 84.3 119.32 142.11 15.31 32.48 24.96 66.66 29.2 102.44 2.23 18.8 2.72 37.57 2.27 56.42-.09 3.7-.83 7.39-1.34 11.63-64.46-8.84-126.43 1.53-187.85 22.55 38.89-57.15 58.7-117.64 42.19-187.04-29.73 15.65-58.17 30.62-88.23 46.44 12.88-27.48 16.23-54.82 10.68-83.78-24.02 8.23-45.5 19.29-64.53 35.21-17.31 14.48-29.25 32.56-37.09 53.35-4.2 11.15-2.12 23.25-3.3 35.95 17.09-14.07 32.22-28.45 41.74-47.79 8-16.26 18.94-29.77 35.62-37.87.75-.37 1.51-.71 3.08-1.44-.47 12.25-3.43 23.27-7.59 33.85-8.88 22.56-22.64 41.91-40.01 58.81-9.98 9.71-19.39 19.96-26.63 32.02-4.01 6.67-5.97 13.71-5.87 21.48.15 11.23.04 22.47.04 35.71 6.76-10.36 12.38-19.13 18.16-27.81 23.31-35 52.66-63.72 88.88-85.29 3.26-1.94 6.64-3.38 10.28-4.33.49 1.34 1.45 2.07 2.8 2.56 11.17 4.09 9.62 15.78 2.18 20.66-17.35 11.38-33.49 24.27-48.12 38.94-8.64 8.67-18.04 16.79-23.95 27.85-.58.38-1.95.43-1.32 1.4.53.8 1.42.09 1.89-.68 7.71-1.06 14.51-5.06 21.99-6.86 7.84-1.89 12.92.63 15.62 7.79 1.82 4.82-1.15 10.66-6.91 14.09-12.23 7.28-25.95 10.72-39.15 15.54-9.08 3.31-19.9 2.86-25.41 13.94-5.76 11.6-12.67 22.6-15.52 35.44-1.44 9.79-1.55 19.59-.22 29.4-2.69 9.22-.71 18.63-1.1 27.94-7.57 3.98-15.14 7.96-22.71 11.95-2.19-1.67-1.28-4.07-1.31-6.15-.1-9.28.02-18.57-.09-27.85-.02-2.06.99-4.49-1.35-6.09 0-7.69 0-15.37.02-23.06 0-2.17.29-4.39-1.42-6.16-3.64-15.97-12.26-29.53-21.02-42.99-.82-1.26-2.95-1.96-4.61-2.35-11.81-2.77-23.21-6.82-34.61-10.85-8.08-2.86-16.15-6.06-22.74-11.79-5.4-4.7-6.22-9.12-3.24-14.01 3.42-5.59 9.09-7.25 15.5-4.8 6.98 2.68 13.96 5.4 21.34 6.84.46.77 1.36 1.48 1.88.68.63-.96-.74-1.02-1.32-1.39-3.6-6.65-8.88-12.02-13.87-17.54-16.48-18.25-35.93-33.13-55.54-47.74-12.27-9.14-11.04-20.56 1.98-23.89.62-.16 1.15-.66 1.72-1Zm115.84-85.15c.06-14.64.12-29.28.19-43.93.02-4.22.37-8.52 3.13-11.85 3.61-4.37 8.16-5.15 13.73-3.31 6.22 2.05 8.09 6.66 8.22 12.15.29 12.86.06 25.74.16 38.61.02 2.33-.91 4.91 1.06 6.98-2.26 8.21-.45 16.5-1.19 25.92 4.7-3.78 8.54-6.63 12.12-9.78 25.7-22.65 38.1-50.01 31.11-84.87-7.26-36.18-30.26-61.79-55.88-86.42-8.29 8.76-16.83 16.62-23.99 25.58-14.28 17.87-26.83 36.59-31.17 60-7.75 41.86 10.06 73.64 42.51 95.38v-24.44Z" class="cls-5"/><path d="M267.57 698.7c-25.03-5.01-48.84-13.33-71-26.16 9.43-9.73 20.52-17.51 31.08-25.88 54.87-43.51 116.58-74.9 181.32-100.59 50.73-20.13 102.75-35.94 156.75-44.96 28.75-4.8 57.53-7.2 86.63-5.49-7.84 22.5-20.23 42.59-32.68 62.7-8.37 13.52-17.81 26.12-28.6 37.76-1.47 1.59-3.19 2.94-4.79 4.4-1.94.41-3.95.65-5.82 1.27-44.7 14.75-85.32 36.9-121.43 67.18-8.97 7.52-18.35 14.64-25.02 24.52-10.72 4.67-22.25 6.18-33.6 8.19-6.11 1.08-12.17 3.66-18.61 2.05.03-2.47 1.75-4 3.17-5.68 18.73-22.05 39.62-41.66 63.22-58.55 31.9-22.82 66.86-39.04 104.04-50.93 10.74-3.43 21.89-5.57 32.31-10.03 3.58-1.53 5.59-4.25 5.62-8.27.03-4.16-1.78-7.16-5.39-9.26-3.9-2.27-8.13-2.58-12.26-1.59-27.85 6.68-55.09 15.21-81.18 27.18-47.17 21.64-88.24 51.8-123.72 89.51-8.73 9.28-17.83 18.56-23.12 30.57-14.16 1.55-28.25-.21-42.35-1.13-1.46-.1-2.87-1.06-4.3-1.62.1-3.55 2.86-5.41 5.03-7.52 5.4-5.25 10.94-10.37 16.48-15.48 33.24-30.65 69.48-56.95 110.19-76.96 8.94-4.39 18.28-8.11 26.52-13.82 5.15-3.57 6.16-8.86 3.13-13.93-3.2-5.35-8.66-7.37-14.1-5.09-23.97 10.06-46.87 22.33-68.66 36.32-38.32 24.59-73.53 53.2-105.29 85.94-1.51 1.56-3.58 2.76-3.58 5.34Z" style="fill:#9e522d;stroke-width:0"/><path d="M652.35 495.62c-29.1-1.71-57.88.69-86.63 5.49-54 9.01-106.02 24.83-156.75 44.96-64.74 25.69-126.44 57.08-181.32 100.59-10.55 8.37-21.64 16.14-31.08 25.88-2.01-.84-4.06-1.6-6.03-2.53-10.54-5.02-20.23-11.48-30.07-17.46-.22-2.81 1.98-3.59 3.39-4.74 64.14-52.55 135.22-93.26 211.78-124.83 48.09-19.83 96.89-37.38 147.54-49.39 45.7-10.84 91.86-17.66 139.05-13.15.65.06 1.28.25 2.64.52-2.57 12.23-7.44 23.48-12.52 34.66Z" class="cls-7"/><path d="M44.46 528.2c-3.19-4.11-6.11-8.36-8.23-13.95 73.75-8.61 139.95 11.64 204.34 46.61-19.22 12.31-37.81 23.11-55.19 35.75-17.43 12.68-34.74 25.52-50.97 40.01-22.03-17.21-41.45-36.49-58.41-58.22-7.7-9.87-15.07-19.99-20.6-31.3 15.49.94 30.93-.93 46.57.8 12.65 1.4 24.98 4.18 37.32 6.5 11.58 2.17 22.53 7.82 33.64 12.23 7.25 2.88 14.25 1.77 17.12-3.3 2.7-4.76-.33-11.27-6.77-15.96-2.94-2.14-6.3-1.69-9.39-2.8-13.82-4.97-27.6-10.11-42.15-12.74-10.79-1.95-21.57-3.75-32.47-5.16-10.34-1.33-20.62-2.85-30.9-1.98-7.98.68-16.38-.5-23.91 3.51Z" style="stroke-width:0;fill:#a0532e"/><path d="M354.16 444.57c2.85-12.84 9.76-23.84 15.52-35.44 5.51-11.09 16.33-10.63 25.41-13.94 13.2-4.82 26.92-8.25 39.15-15.54 5.76-3.43 8.73-9.27 6.91-14.09-2.7-7.16-7.78-9.67-15.62-7.79-7.48 1.8-14.28 5.8-21.99 6.86-.2-.23-.39-.47-.57-.72 5.9-11.06 15.3-19.18 23.95-27.85 14.63-14.67 30.78-27.56 48.12-38.94 7.44-4.88 8.98-16.58-2.18-20.66-1.34-.49-2.31-1.22-2.8-2.56 7.12-4.19 14.19-8.49 21.39-12.55 7.05-3.98 14.25-7.71 21.99-11.88 1.81 11.11.6 21.61-1.07 31.84-3.99 24.38-11.76 47.68-23.15 69.61-11.82 22.74-27.8 41.93-47.95 58.18-20.38 16.43-43.36 26.38-68.2 33.02-6.17 1.65-12.48 2.58-18.91 2.45Zm-142.7-170.83c-.57.34-1.1.84-1.72 1-13.01 3.33-14.25 14.75-1.98 23.89 19.61 14.61 39.06 29.49 55.54 47.74 4.99 5.52 10.27 10.89 13.87 17.54-.18.24-.37.48-.56.71-7.38-1.44-14.36-4.17-21.34-6.84-6.4-2.46-12.08-.8-15.5 4.8-2.98 4.88-2.16 9.31 3.24 14.01 6.59 5.73 14.66 8.93 22.74 11.79 11.39 4.03 22.8 8.08 34.61 10.85 1.66.39 3.79 1.08 4.61 2.35 8.76 13.46 17.37 27.02 21.02 42.99-21.57-2.33-42.07-8.31-61.26-18.43-14.69-7.75-27.72-17.61-39.47-29.58-26.25-26.74-42.95-58.5-52.53-94.41-3.99-14.94-5.55-30.18-6.49-45.52-.13-2.17-.51-4.43 1.09-7.67 14.74 8.28 29.43 16.54 44.12 24.79Zm115.93 200.03c2.34 1.6 1.32 4.03 1.35 6.09.11 9.28 0 18.57.09 27.85.02 2.08-.89 4.48 1.31 6.15-2.03 1.24-4.06 2.49-6.09 3.73-12.19-6.58-23.21-14.81-34.99-21.86-18.78-11.24-38.42-20.74-58.37-29.45-24.27-10.59-49.38-19.23-75.27-25.05-18.06-4.06-36.24-7.53-54.81-8.92-15.03-1.13-30.15-3.16-45.07-2.1-11.81.84-23.76-.5-35.5 2.12-6.8 1.52-9.75-1.05-11.37-7.91-1.79-7.59-3.7-15.15-4.36-23.19 9.17-2.72 18.21-2.43 27.05-3.3 6.6-.65 13.32-.02 19.98-.15 31.76-.62 62.66 4.94 93.33 12.57 25.92 6.44 50.08 17.21 74.12 28.5 27.33 12.84 54.81 25.45 84.65 31.59 7.9 1.63 15.76 3.74 23.96 3.34Zm25.45 28.14c.38-9.31-1.59-18.72 1.1-27.94 25.33-2.23 49.49-9.23 72.74-19.12 29.39-12.52 57.86-27.27 88.31-37.21 19.96-6.52 40.3-11.5 61.14-14.74 22.09-3.43 44.2-5.11 66.5-5.04 11.68.04 23.16 2.1 35.25 2.94.5 11.05-3.77 20.87-5.68 31.07-.23 1.24-1.7 1.43-3.26 1.31-23.03-1.75-46.2-2.08-69.11-.36-33.03 2.48-65.56 8.95-97.66 17.4-49.84 13.13-98.22 30.38-145.52 50.76-1.18.51-2.53.63-3.8.94Z" class="cls-7"/><path d="M291.85 531.19c-9.49 5.1-17.66 9.48-25.61 13.74-74-44.27-152.53-69.06-239.69-58.52-1.52-3.41-2.98-6.39-4.19-9.46-2.08-5.29-4.01-10.63-6.1-16.21 101.3-13.81 190.35 18.15 275.58 70.44Zm52.65 175.46c5.28-12.01 14.39-21.29 23.12-30.57 35.47-37.71 76.55-67.87 123.72-89.51 26.09-11.97 53.33-20.5 81.18-27.18 4.13-.99 8.36-.68 12.26 1.59 3.61 2.1 5.42 5.1 5.39 9.26-.03 4.02-2.04 6.73-5.62 8.27-10.42 4.46-21.56 6.6-32.31 10.03-37.19 11.88-72.14 28.11-104.04 50.93-23.6 16.89-44.49 36.5-63.22 58.55-1.42 1.68-3.14 3.21-3.17 5.68-12.35 1.98-24.8 2.75-37.29 2.96Zm-76.93-7.95c0-2.58 2.07-3.78 3.58-5.34 31.75-32.74 66.97-61.35 105.29-85.94 21.8-13.99 44.7-26.26 68.66-36.32 5.44-2.28 10.9-.26 14.1 5.09 3.03 5.07 2.02 10.36-3.13 13.93-8.24 5.72-17.59 9.43-26.52 13.82-40.7 20.01-76.95 46.31-110.19 76.96-5.54 5.11-11.08 10.23-16.48 15.48-2.17 2.11-4.93 3.97-5.03 7.52-10.1-1.73-20.19-3.47-30.29-5.2ZM434 693.44c6.67-9.88 16.04-17 25.02-24.52 36.11-30.28 76.73-52.42 121.43-67.18 1.88-.62 3.88-.85 5.82-1.27-8.02 11.38-19.43 19.22-29.73 28.18-31.8 27.65-68.19 47.26-108.06 60.55-4.77 1.59-9.65 2.83-14.48 4.23Z" style="fill:#173228;stroke-width:0"/><path d="M44.46 528.2c7.53-4.02 15.94-2.84 23.91-3.51 10.28-.87 20.57.65 30.9 1.98 10.9 1.41 21.68 3.21 32.47 5.16 14.55 2.63 28.33 7.77 42.15 12.74 3.09 1.11 6.45.66 9.39 2.8 6.44 4.69 9.47 11.2 6.77 15.96-2.87 5.07-9.87 6.18-17.12 3.3-11.11-4.41-22.07-10.06-33.64-12.23-12.34-2.32-24.67-5.1-37.32-6.5-15.64-1.73-31.08.14-46.57-.8-4.51-5.8-7.61-12.42-10.94-18.91ZM327.3 188.59c-19.83-22.27-24.43-56.73-11.35-83.84 6.04-12.53 13.56-23.95 23.33-33.92 33.5 32.92 45.57 77.54 14.51 116.41-1.97-2.07-1.04-4.65-1.06-6.98-.1-12.87.13-25.74-.16-38.61-.13-5.48-2-10.1-8.22-12.15-5.58-1.83-10.12-1.05-13.73 3.31-2.76 3.33-3.11 7.63-3.13 11.85-.07 14.64-.13 29.28-.19 43.93Z" class="cls-7"/><path d="M277.17 363.91c.58.37 1.95.44 1.32 1.39-.52.8-1.42.09-1.88-.68.19-.23.38-.47.56-.71Zm126.37.72c-.46.77-1.36 1.48-1.89.68-.63-.96.74-1.02 1.32-1.4.18.25.37.49.57.72Z" style="fill:#658b67;stroke-width:0"/><path d="M903.17 289.21c-20.35 0-39.15-3.11-56.39-9.34-17-6.46-31.84-15.56-44.53-27.29-12.45-11.73-22.15-25.62-29.09-41.66-6.94-16.04-10.42-33.76-10.42-53.15s3.47-37.11 10.42-53.15c6.94-16.04 16.76-29.93 29.45-41.66 12.69-11.73 27.65-20.71 44.89-26.94 17.48-6.46 36.63-9.7 57.46-9.7 24.9 0 47.05 4.19 66.44 12.57 19.63 8.38 35.79 20.35 48.48 35.91l-54.23 47.77c-7.9-9.1-16.52-15.92-25.86-20.47-9.1-4.79-19.27-7.18-30.53-7.18-9.34 0-17.84 1.44-25.5 4.31-7.42 2.87-13.77 7.06-19.03 12.57-5.27 5.51-9.34 12.09-12.21 19.75-2.87 7.66-4.31 16.4-4.31 26.22s1.44 17.96 4.31 25.86c2.87 7.66 6.94 14.25 12.21 19.75 5.27 5.51 11.49 9.82 18.68 12.93 7.42 2.87 15.68 4.31 24.78 4.31 9.58 0 18.92-1.56 28.01-4.67 9.1-3.35 18.79-8.98 29.09-16.88l47.41 58.18c-15.32 10.3-32.8 18.2-52.43 23.7-19.63 5.51-38.67 8.26-57.1 8.26Zm35.92-42.74v-95.53h73.62v106.31l-73.62-10.77Zm107.22 36.99V87.01h77.22v59.26l-12.57-16.88c5.98-15.32 15.56-26.82 28.73-34.48 13.17-7.66 28.97-11.49 47.41-11.49v71.83c-3.59-.48-6.82-.84-9.7-1.08-2.63-.24-5.39-.36-8.26-.36-12.21 0-22.27 3.23-30.17 9.7-7.66 6.22-11.49 17.12-11.49 32.68v87.27h-81.17Zm270.5 3.59c-23.94 0-44.89-4.43-62.85-13.29-17.72-8.86-31.49-20.95-41.3-36.27-9.82-15.56-14.72-33.04-14.72-52.43s4.79-37.47 14.37-52.79c9.82-15.32 23.1-27.29 39.86-35.91 17-8.62 36.03-12.93 57.1-12.93 19.39 0 37.23 3.83 53.51 11.49 16.52 7.66 29.69 19.03 39.51 34.12 10.06 15.08 15.08 33.76 15.08 56.03 0 2.87-.12 6.11-.36 9.7-.24 3.35-.48 6.46-.72 9.34h-151.2v-39.15h108.1l-30.53 10.42c0-7.66-1.44-14.13-4.31-19.39-2.63-5.51-6.35-9.7-11.13-12.57-4.79-3.11-10.54-4.67-17.24-4.67s-12.57 1.56-17.6 4.67c-4.79 2.87-8.5 7.06-11.13 12.57-2.63 5.27-3.95 11.73-3.95 19.39v12.21c0 8.38 1.68 15.56 5.03 21.55 3.35 5.99 8.14 10.53 14.37 13.65 6.22 2.87 13.77 4.31 22.63 4.31s16.52-1.2 22.27-3.59c5.98-2.39 12.21-5.99 18.68-10.77l42.38 42.74c-9.58 10.3-21.43 18.2-35.56 23.7-13.89 5.27-30.65 7.9-50.28 7.9Zm234.63 0c-23.94 0-44.89-4.43-62.85-13.29-17.72-8.86-31.49-20.95-41.3-36.27-9.82-15.56-14.72-33.04-14.72-52.43s4.79-37.47 14.37-52.79c9.82-15.32 23.1-27.29 39.86-35.91 17-8.62 36.03-12.93 57.1-12.93 19.39 0 37.23 3.83 53.51 11.49 16.52 7.66 29.69 19.03 39.51 34.12 10.06 15.08 15.08 33.76 15.08 56.03 0 2.87-.12 6.11-.36 9.7-.24 3.35-.48 6.46-.72 9.34h-151.2v-39.15h108.1l-30.53 10.42c0-7.66-1.44-14.13-4.31-19.39-2.63-5.51-6.35-9.7-11.13-12.57-4.79-3.11-10.54-4.67-17.24-4.67s-12.57 1.56-17.6 4.67c-4.79 2.87-8.5 7.06-11.13 12.57-2.63 5.27-3.95 11.73-3.95 19.39v12.21c0 8.38 1.68 15.56 5.03 21.55 3.35 5.99 8.14 10.53 14.37 13.65 6.22 2.87 13.77 4.31 22.63 4.31s16.52-1.2 22.27-3.59c5.98-2.39 12.21-5.99 18.68-10.77l42.38 42.74c-9.58 10.3-21.43 18.2-35.56 23.7-13.89 5.27-30.65 7.9-50.28 7.9Zm262.65-203.63c15.08 0 28.73 3.11 40.94 9.34 12.21 5.99 21.79 15.44 28.73 28.37 7.18 12.93 10.77 29.69 10.77 50.28v112.05h-81.17v-98.05c0-12.21-2.15-20.83-6.46-25.86-4.31-5.27-10.18-7.9-17.6-7.9-5.51 0-10.66 1.32-15.44 3.95-4.55 2.39-8.26 6.46-11.13 12.21-2.63 5.75-3.95 13.53-3.95 23.34v92.3h-81.17V87.01h77.22v57.46l-15.44-16.52c7.66-14.84 17.96-25.98 30.89-33.4 13.17-7.42 27.77-11.13 43.82-11.13Z" class="cls-5"/><path d="M2026.03 289.21c-21.07 0-41.42-2.39-61.05-7.18-19.63-4.79-35.79-11.01-48.48-18.68l27.29-61.77c11.97 6.94 25.26 12.57 39.86 16.88 14.84 4.07 29.21 6.11 43.1 6.11 8.14 0 14.48-.48 19.03-1.44 4.79-1.2 8.26-2.75 10.42-4.67 2.15-2.15 3.23-4.67 3.23-7.54 0-4.55-2.51-8.14-7.54-10.77s-11.73-4.79-20.11-6.46c-8.14-1.91-17.12-3.83-26.94-5.75-9.82-2.15-19.75-4.91-29.81-8.26-9.82-3.35-18.92-7.78-27.29-13.29-8.14-5.51-14.72-12.69-19.75-21.55-5.03-9.1-7.54-20.35-7.54-33.76 0-15.56 4.31-29.69 12.93-42.38 8.86-12.93 21.91-23.22 39.15-30.89 17.48-7.66 39.15-11.49 65-11.49 17 0 33.76 1.8 50.28 5.39 16.52 3.59 31.36 9.1 44.53 16.52l-25.5 61.41c-12.45-6.23-24.54-10.89-36.27-14.01-11.49-3.11-22.75-4.67-33.76-4.67-8.14 0-14.61.72-19.39 2.15-4.79 1.44-8.26 3.35-10.42 5.75-1.91 2.39-2.87 5.03-2.87 7.9 0 4.31 2.51 7.78 7.54 10.42 5.03 2.39 11.61 4.43 19.75 6.11 8.38 1.68 17.48 3.47 27.29 5.39 10.06 1.92 19.99 4.55 29.81 7.9 9.82 3.35 18.79 7.78 26.94 13.29 8.38 5.51 15.08 12.69 20.11 21.55 5.03 8.86 7.54 19.87 7.54 33.04 0 15.32-4.43 29.45-13.29 42.38-8.62 12.69-21.55 22.99-38.79 30.89-17.24 7.66-38.91 11.49-65 11.49Zm245.39-2.16c-22.51 0-42.51-4.31-59.98-12.93-17.48-8.62-31.25-20.59-41.31-35.91-9.82-15.56-14.72-33.28-14.72-53.15s4.91-37.47 14.72-52.79c10.06-15.32 23.82-27.29 41.31-35.91 17.47-8.62 37.47-12.93 59.98-12.93 23.93 0 44.4 5.15 61.41 15.44 16.99 10.3 28.73 24.54 35.2 42.74l-62.85 30.89c-4.08-9.1-9.11-15.68-15.08-19.75-5.75-4.07-12.1-6.11-19.03-6.11-5.99 0-11.62 1.44-16.88 4.31-5.03 2.87-9.11 7.18-12.21 12.93-2.87 5.51-4.31 12.57-4.31 21.19s1.44 15.8 4.31 21.55c3.1 5.75 7.18 10.06 12.21 12.93 5.26 2.87 10.89 4.31 16.88 4.31 6.94 0 13.29-2.04 19.03-6.11 5.98-4.07 11-10.66 15.08-19.75l62.85 30.89c-6.46 18.2-18.2 32.44-35.2 42.74-17.01 10.3-37.48 15.44-61.41 15.44Zm234.23-3.59v-34.84l-5.75-9.34V173.2c0-9.58-2.99-16.88-8.98-21.91-5.75-5.03-15.2-7.54-28.37-7.54-8.85 0-17.83 1.44-26.94 4.31-9.09 2.63-16.88 6.34-23.34 11.13l-25.86-53.51c11.49-7.18 25.27-12.69 41.3-16.52 16.05-3.83 31.73-5.75 47.05-5.75 33.76 0 59.86 7.54 78.29 22.63 18.68 15.08 28.01 39.03 28.01 71.83v105.59h-75.42Zm-55.67 3.59c-16.03 0-29.45-2.75-40.22-8.26s-18.91-12.81-24.42-21.91c-5.5-9.34-8.26-19.63-8.26-30.89 0-12.69 3.23-23.46 9.7-32.32 6.46-8.86 16.29-15.56 29.45-20.11 13.42-4.55 30.3-6.82 50.64-6.82h40.94v39.15h-28.01c-8.62 0-14.95 1.44-19.03 4.31-3.82 2.63-5.75 6.7-5.75 12.21 0 4.55 1.68 8.38 5.03 11.49 3.59 2.87 8.39 4.31 14.37 4.31 5.52 0 10.54-1.44 15.08-4.31 4.8-3.11 8.26-7.9 10.42-14.37l10.42 24.06c-3.1 14.61-9.7 25.5-19.75 32.68-10.06 7.18-23.57 10.77-40.58 10.77Zm297.26 0c-16.99 0-31.12-3.59-42.38-10.77-11-7.42-19.15-18.56-24.42-33.4-5.26-15.08-7.9-34.24-7.9-57.46s2.4-42.98 7.18-57.82c5.03-15.08 13.06-26.22 24.06-33.4 11.02-7.18 25.5-10.77 43.46-10.77s33.04 4.19 47.41 12.57c14.37 8.14 25.86 19.87 34.48 35.2 8.62 15.08 12.93 33.16 12.93 54.23s-4.31 39.27-12.93 54.59c-8.62 15.08-20.11 26.7-34.48 34.84-14.37 8.14-30.17 12.21-47.41 12.21Zm-131.09 66.08V87.01h77.22v26.58l.36 71.83 3.59 71.83v95.89h-81.17Zm111.69-129.29c5.99 0 11.38-1.44 16.16-4.31 4.8-2.87 8.62-7.18 11.49-12.93 2.87-5.75 4.31-12.81 4.31-21.19s-1.44-15.8-4.31-21.55c-2.87-5.75-6.69-10.06-11.49-12.93-4.78-2.87-10.17-4.31-16.16-4.31s-11.36 1.44-16.16 4.31c-4.78 2.87-8.62 7.18-11.49 12.93-2.87 5.75-4.31 12.93-4.31 21.55s1.44 15.44 4.31 21.19c2.87 5.75 6.71 10.06 11.49 12.93 4.8 2.87 10.19 4.31 16.16 4.31Zm248.24 63.21c-23.95 0-44.89-4.43-62.85-13.29-17.71-8.86-31.49-20.95-41.3-36.27-9.81-15.56-14.72-33.04-14.72-52.43s4.78-37.47 14.37-52.79c9.81-15.32 23.1-27.29 39.86-35.91 16.99-8.62 36.03-12.93 57.1-12.93 19.39 0 37.24 3.83 53.51 11.49 16.52 7.66 29.69 19.03 39.51 34.12 10.06 15.08 15.08 33.76 15.08 56.03 0 2.87-.12 6.11-.36 9.7-.24 3.35-.47 6.46-.72 9.34h-151.2v-39.15h108.1l-30.53 10.42c0-7.66-1.44-14.13-4.31-19.39-2.63-5.51-6.35-9.7-11.13-12.57-4.78-3.11-10.53-4.67-17.24-4.67s-12.57 1.56-17.6 4.67c-4.78 2.87-8.5 7.06-11.13 12.57-2.63 5.27-3.95 11.73-3.95 19.39v12.21c0 8.38 1.68 15.56 5.03 21.55 3.35 5.99 8.15 10.53 14.37 13.65 6.22 2.87 13.76 4.31 22.63 4.31s16.52-1.2 22.27-3.59c5.99-2.39 12.21-5.99 18.68-10.77l42.38 42.74c-9.58 10.3-21.43 18.2-35.55 23.7-13.89 5.27-30.64 7.9-50.28 7.9ZM935.85 376.84h84.76v251.4h-84.76v-251.4Zm-78.29 251.4H772.8v-251.4h84.76v251.4Zm84.04-92.66h-89.79v-69.67h89.79v69.67Zm236.21 92.66V593.4l-5.75-9.34v-66.08c0-9.58-2.99-16.88-8.98-21.91-5.75-5.03-15.2-7.54-28.37-7.54-8.86 0-17.84 1.44-26.94 4.31-9.1 2.63-16.88 6.35-23.34 11.13l-25.86-53.51c11.49-7.18 25.26-12.69 41.3-16.52 16.04-3.83 31.72-5.75 47.05-5.75 33.76 0 59.86 7.54 78.29 22.63 18.68 15.08 28.01 39.03 28.01 71.83v105.59h-75.42Zm-55.66 3.59c-16.04 0-29.45-2.75-40.22-8.26s-18.92-12.81-24.42-21.91c-5.51-9.34-8.26-19.63-8.26-30.89 0-12.69 3.23-23.46 9.7-32.32s16.28-15.56 29.45-20.11c13.41-4.55 30.29-6.82 50.64-6.82h40.94v39.15h-28.01c-8.62 0-14.96 1.44-19.03 4.31-3.83 2.63-5.75 6.7-5.75 12.21 0 4.55 1.68 8.38 5.03 11.49 3.59 2.87 8.38 4.31 14.37 4.31 5.51 0 10.53-1.44 15.08-4.31 4.79-3.11 8.26-7.9 10.42-14.37l10.42 24.06c-3.11 14.61-9.7 25.5-19.75 32.68-10.06 7.18-23.58 10.77-40.58 10.77Zm166.16-3.59V431.79h77.22v59.26l-12.57-16.88c5.98-15.32 15.56-26.82 28.73-34.48 13.17-7.66 28.97-11.49 47.41-11.49v71.83c-3.59-.48-6.82-.84-9.7-1.08-2.63-.24-5.39-.36-8.26-.36-12.21 0-22.27 3.23-30.17 9.7-7.66 6.22-11.49 17.12-11.49 32.68v87.27h-81.17Zm423.81-200.05c14.85 0 28.13 3.11 39.86 9.34 11.97 5.99 21.31 15.44 28.01 28.37 6.94 12.93 10.42 29.69 10.42 50.28v112.05h-81.17v-98.05c0-12.21-2.03-20.83-6.11-25.86-4.07-5.27-9.34-7.9-15.8-7.9-4.79 0-9.1 1.2-12.93 3.59-3.83 2.39-6.94 6.22-9.34 11.49-2.15 5.03-3.23 11.97-3.23 20.83v95.89h-81.17v-98.05c0-12.21-1.91-20.83-5.75-25.86-3.83-5.27-9.22-7.9-16.16-7.9-4.79 0-9.1 1.2-12.93 3.59-3.83 2.39-6.94 6.22-9.34 11.49-2.15 5.03-3.23 11.97-3.23 20.83v95.89h-81.17V431.76h77.22v56.39l-15.8-15.8c7.42-14.84 17.36-25.86 29.81-33.04 12.45-7.42 26.34-11.13 41.66-11.13 17.24 0 32.44 4.55 45.61 13.65 13.41 8.86 22.39 22.99 26.94 42.38l-24.78-3.95c7.18-16.28 17.6-28.97 31.25-38.07 13.89-9.34 29.93-14.01 48.12-14.01Zm220.8 203.64c-22.27 0-42.02-4.31-59.26-12.93-17-8.86-30.41-20.95-40.22-36.27-9.82-15.32-14.72-32.92-14.72-52.79s4.91-37.47 14.72-52.79c9.82-15.32 23.22-27.29 40.22-35.91 17.24-8.62 36.99-12.93 59.26-12.93s42.02 4.31 59.26 12.93c17.24 8.62 30.65 20.59 40.22 35.91 9.82 15.32 14.72 32.92 14.72 52.79s-4.91 37.47-14.72 52.79c-9.58 15.32-22.99 27.41-40.22 36.27-17.24 8.62-36.99 12.93-59.26 12.93Zm0-63.21c5.98 0 11.37-1.44 16.16-4.31 4.79-2.87 8.62-7.18 11.49-12.93 2.87-5.99 4.31-13.17 4.31-21.55s-1.44-15.68-4.31-21.19c-2.87-5.75-6.7-10.06-11.49-12.93-4.79-2.87-10.18-4.31-16.16-4.31s-11.37 1.44-16.16 4.31c-4.79 2.87-8.62 7.18-11.49 12.93-2.87 5.51-4.31 12.57-4.31 21.19s1.44 15.56 4.31 21.55c2.87 5.75 6.7 10.06 11.49 12.93 4.79 2.87 10.18 4.31 16.16 4.31ZM2209 428.19c15.08 0 28.73 3.11 40.94 9.34 12.21 5.99 21.79 15.44 28.73 28.37 7.18 12.93 10.77 29.69 10.77 50.28v112.05h-81.17v-98.05c0-12.21-2.15-20.83-6.46-25.86-4.31-5.27-10.17-7.9-17.59-7.9-5.51 0-10.66 1.32-15.44 3.95-4.55 2.39-8.26 6.46-11.13 12.21-2.63 5.75-3.95 13.53-3.95 23.34v92.3h-81.17V431.77h77.22v57.46l-15.44-16.52c7.66-14.84 17.96-25.98 30.89-33.4 13.17-7.42 27.78-11.13 43.81-11.13Zm155.29 273.31c-10.77 0-21.79-1.68-33.04-5.03-11.02-3.11-19.87-7.3-26.58-12.57l26.94-55.67c4.07 3.11 8.62 5.63 13.65 7.54 5.27 1.91 10.3 2.87 15.08 2.87 7.18 0 12.68-1.56 16.52-4.67 3.84-2.87 6.94-7.3 9.34-13.29l8.26-20.83 5.75-7.9 62.85-160.18h76.86l-80.81 200.4c-7.18 17.96-15.56 31.96-25.14 42.02-9.34 10.06-19.87 17.12-31.6 21.19-11.49 4.07-24.18 6.11-38.07 6.11Zm19.03-64.29-85.48-205.43h83.32l58.9 152.99-56.74 52.43Z" style="fill:sienna;stroke-width:0"/></svg>